<svg width="37" height="37" viewBox="0 0 37 37" fill="none" xmlns="http://www.w3.org/2000/svg">
<path d="M12.642 27.5396V23.0396M18.642 20.0396V27.5396M24.642 27.5396V17.0396M10.392 17.7896L12.5889 15.2265C14.0152 13.5625 16.2175 12.7806 18.3738 13.1726V13.1726C21.3601 13.7156 24.4226 12.7589 26.5689 10.6127L26.892 10.2896M15.942 32.0396H21.342C25.8417 32.0396 28.0915 32.0396 29.6687 30.8937C30.1781 30.5236 30.626 30.0756 30.9961 29.5663C32.142 27.9891 32.142 25.7392 32.142 21.2396V15.8396C32.142 11.3399 32.142 9.09004 30.9961 7.51284C30.626 7.00347 30.1781 6.55553 29.6687 6.18545C28.0915 5.03955 25.8417 5.03955 21.342 5.03955H15.942C11.4423 5.03955 9.19245 5.03955 7.61526 6.18545C7.10589 6.55553 6.65794 7.00347 6.28787 7.51284C5.14197 9.09004 5.14197 11.3399 5.14197 15.8396V21.2396C5.14197 25.7392 5.14197 27.9891 6.28787 29.5663C6.65794 30.0756 7.10589 30.5236 7.61526 30.8937C9.19245 32.0396 11.4423 32.0396 15.942 32.0396Z" stroke="#1C1D1D" stroke-width="2.25" stroke-linecap="round" stroke-linejoin="round"/>
</svg>
