<svg width="37" height="37" viewBox="0 0 37 37" fill="none" xmlns="http://www.w3.org/2000/svg">
<path d="M5.14197 18.6938V13.2938C5.14197 9.91904 5.14197 8.23165 6.00139 7.04876C6.27895 6.66673 6.61491 6.33077 6.99694 6.05321C8.17983 5.19379 9.86721 5.19379 13.242 5.19379H14.7408C15.5537 5.19379 15.9601 5.19379 16.3506 5.26317C16.8288 5.34813 17.2901 5.50994 17.7166 5.74234C18.0649 5.93211 18.3822 6.186 19.017 6.69379V6.69379C19.6517 7.20158 19.9691 7.45547 20.3174 7.64525C20.7438 7.87764 21.2051 8.03946 21.6834 8.12441C22.0739 8.19379 22.4803 8.19379 23.2932 8.19379H24.042C27.4167 8.19379 29.1041 8.19379 30.287 9.05322C30.669 9.33077 31.005 9.66673 31.2826 10.0488C32.142 11.2317 32.142 12.919 32.142 16.2938V18.6938M14.7408 11.1938H13.242C9.86721 11.1938 8.17983 11.1938 6.99694 12.0532C6.61491 12.3308 6.27895 12.6667 6.00139 13.0488C5.14197 14.2317 5.14197 15.919 5.14197 19.2938V24.0938C5.14197 27.4686 5.14197 29.1559 6.00139 30.3388C6.27895 30.7209 6.61491 31.0568 6.99694 31.3344C8.17983 32.1938 9.86721 32.1938 13.242 32.1938H24.042C27.4167 32.1938 29.1041 32.1938 30.287 31.3344C30.669 31.0568 31.005 30.7209 31.2826 30.3388C32.142 29.1559 32.142 27.4686 32.142 24.0938V22.2938C32.142 18.919 32.142 17.2317 31.2826 16.0488C31.005 15.6667 30.669 15.3308 30.287 15.0532C29.1041 14.1938 27.4167 14.1938 24.042 14.1938H23.2932C22.4803 14.1938 22.0739 14.1938 21.6834 14.1244C21.2051 14.0395 20.7438 13.8776 20.3174 13.6453C19.9691 13.4555 19.6517 13.2016 19.017 12.6938V12.6938C18.3822 12.186 18.0649 11.9321 17.7166 11.7423C17.2901 11.5099 16.8288 11.3481 16.3506 11.2632C15.9601 11.1938 15.5537 11.1938 14.7408 11.1938Z" stroke="#1C1D1D" stroke-width="2.25" stroke-linecap="round" stroke-linejoin="round"/>
</svg>
