<svg width="30" height="30" viewBox="0 0 30 30" fill="none" xmlns="http://www.w3.org/2000/svg">
<path d="M5.47237 7.89555C9.44956 3.91836 11.4382 1.92976 13.8451 1.54855C14.6224 1.42543 15.4142 1.42543 16.1916 1.54855C18.5985 1.92976 20.5871 3.91836 24.5643 7.89555V7.89555C26.2958 9.6271 27.1616 10.4929 27.7009 11.5513C27.8792 11.9014 28.0298 12.2649 28.1512 12.6386C28.5183 13.7683 28.5183 14.9927 28.5183 17.4415V23.8496C28.5183 26.3349 26.5036 28.3496 24.0183 28.3496V28.3496C21.533 28.3496 19.5183 26.3349 19.5183 23.8496V22.3496C19.5183 19.8643 17.5036 17.8496 15.0183 17.8496V17.8496C12.533 17.8496 10.5183 19.8643 10.5183 22.3496V23.8496C10.5183 26.3349 8.50359 28.3496 6.01831 28.3496V28.3496C3.53303 28.3496 1.51831 26.3349 1.51831 23.8496V17.4415C1.51831 14.9927 1.51831 13.7683 1.88539 12.6386C2.0068 12.2649 2.15739 11.9014 2.33576 11.5513C2.87505 10.4929 3.74082 9.6271 5.47237 7.89555V7.89555Z" stroke="#1C1D1D" stroke-width="2.25" stroke-linejoin="round"/>
</svg>
